<svg xmlns="http://www.w3.org/2000/svg" width="256" height="256"><path fill-opacity=".016" d="M0 128.004v128.004l128.25-.254 128.25-.254.254-127.75L257.008 0H0v128.004m.485.496c0 70.4.119 99.053.265 63.672.146-35.38.146-92.98 0-128C.604 29.153.485 58.1.485 128.5" fill="#1976D2" fill-rule="evenodd"/><path fill-opacity=".099" d="M109 2c0 .55-1.013 1.001-2.25 1.003-6.386.007-33.114 8.984-38.796 13.03-1.474 1.049-2.966 1.621-3.317 1.271-.35-.351-.637-.143-.637.462s-.95 1.401-2.11 1.769c-1.161.368-3.145 1.57-4.411 2.67-1.265 1.1-2.453 1.903-2.64 1.784-.186-.119-2.139 1.446-4.339 3.479-2.2 2.032-5.139 4.294-6.531 5.026-3.247 1.708-9.988 9.185-16.969 18.822-3.025 4.176-5.837 7.614-6.25 7.639-.413.025-.75.58-.75 1.235 0 .654-1.764 4.142-3.919 7.75-4.728 7.914-10.38 24.214-12.743 36.747-.952 5.053-2.093 8.964-2.535 8.691C.361 113.105 0 119.685 0 128c0 10.625.323 14.918 1.086 14.447.684-.423 1 .203.852 1.691-.13 1.299.008 3.037.305 3.862.297.825 1.535 5.775 2.752 11 2.574 11.05 7.948 25.206 11.808 31.101 1.483 2.266 2.546 4.358 2.362 4.648-.185.29.042.803.505 1.139.462.337 3.393 4.042 6.512 8.234 10.697 14.373 22.741 24.969 40.252 35.413 8.733 5.208 20.323 10.042 21.427 8.937.942-.941.062-20.838-1.095-24.781-1.814-6.182-7.661-11.825-17.868-17.245-17.463-9.274-21.742-12.945-30.346-26.029-8.79-13.367-13.711-21.817-13.429-23.061.107-.471-.073-1.531-.4-2.356C23.715 152.455 22 137.018 22 130.49c0-3.405.497-7.618 1.105-9.362 1.757-5.039 7.078-6.81 10.153-3.378 2.269 2.533 4.638 12.606 4.03 17.139-.779 5.811 2.033 12.889 9.806 24.684C54.472 170.768 60.572 176 66.244 176h2.852l-3.052-4.437c-1.679-2.44-5.105-6.118-7.612-8.172-5.466-4.479-7.432-7.967-7.432-13.186 0-3.945 1.983-6.813 5-7.233 4.529-.631 6.583.609 16.3 9.838 6.234 5.921 13.078 11.337 17.264 13.662 21.502 11.942 27.626 18.863 30.993 35.028 1.027 4.933 1.306 25.792.408 30.563-.459 2.44-1.151 8.599-1.537 13.687l-.702 9.25h9.168c7.516 0 9.28-.291 9.788-1.614.341-.888-.13-7.751-1.045-15.25-2.611-21.374-1.729-36.8 2.709-47.422 3.132-7.495 12.51-15.589 28.09-24.242 4.186-2.325 11.03-7.741 17.264-13.662 9.472-8.996 10.654-9.81 14.258-9.81 2.926 0 4.326.567 5.485 2.223 3.571 5.097 1.133 11.73-7 19.043-5.034 4.528-10.168 11.343-9.241 12.269.808.808 7.127-1.487 10.815-3.928 4.371-2.892 17.456-21.87 18.874-27.372.53-2.054 1.376-8.146 1.88-13.538 1.056-11.284 3.046-15.197 7.729-15.197 4.004 0 6.547 3.92 7.197 11.097.726 8.012-2.235 27.65-5.112 33.903-2.642 5.742-18.089 29.349-20.484 31.305-4.263 3.481-16.665 11.284-22.746 14.31C172.738 213.891 168 221.988 168 238.478c0 5.172.448 9.681.996 10.019 1.921 1.188 17.608-6.101 27.897-12.963 29.627-19.757 49.277-48.024 55.638-80.038.874-4.398 1.856-8.671 2.183-9.496.326-.825.488-2.337.358-3.359-.141-1.117.197-1.593.847-1.191.756.467 1.081-3.82 1.081-14.284 0-11.204-.32-15.075-1.276-15.442-.702-.269-1.822-3.671-2.489-7.56-5.134-29.939-23.165-58.833-48.417-77.583-3.475-2.581-7.111-5.342-8.079-6.137-.969-.794-2.146-1.444-2.616-1.444-.469 0-1.957-.868-3.306-1.93-3.425-2.694-17.999-8.591-27.421-11.094-4.343-1.154-8.571-2.363-9.396-2.686-.825-.323-2.512-.488-3.75-.367S148 2.661 148 2.072C148 1.346 141.702 1 128.5 1c-12.333 0-19.5.368-19.5 1m9.424 28.088c-21.693 8.214-27.155 39.164-9.91 56.164l4.355 4.294-6.41 3.323C90.515 102.136 79 121.89 79 140.975c0 4.107.463 5.059 4.25 8.743 2.338 2.275 9.425 7.164 15.75 10.865 12.81 7.497 24.805 18.471 27.087 24.781.723 2 1.629 3.636 2.013 3.636.384 0 1.662-1.85 2.84-4.11 4.931-9.461 14.24-17.75 28.56-25.435 3.85-2.066 9.363-6.035 12.25-8.821l5.25-5.066v-7.102c0-18.068-11.904-37.44-27.517-44.778l-5.983-2.812 5.12-5.283c15.908-16.412 11.106-46.012-8.856-54.599-6.979-3.002-14.914-3.339-21.34-.906M.402 128c0 8.525.154 12.012.341 7.75.188-4.262.188-11.237 0-15.5-.187-4.263-.341-.775-.341 7.75" fill="#1976D2" fill-rule="evenodd"/><path fill-opacity=".288" d="M114.778 1.556c-.359.358-4.393 1.294-8.965 2.079-25.861 4.442-47.39 15.803-66.882 35.296C19.009 58.853 7.664 80.749 3.514 107.289c-.879 5.616-2.075 11.82-2.658 13.787-1.179 3.972-.798 9.787 1.566 23.924 4.818 28.814 16.92 53.363 35.538 72.089 12.3 12.371 26.092 21.768 41.877 28.532 7.786 3.337 8.126 2.994 8.148-8.189.022-11.604-1.908-17.178-7.804-22.543-4.522-4.113-18.774-12.551-20.431-12.095-.413.113-.75-.244-.75-.794s-.445-1-.989-1c-.543 0-1.781-.646-2.75-1.435-.968-.79-3.75-2.927-6.181-4.75s-5.291-4.89-6.356-6.815c-1.064-1.925-2.338-3.65-2.83-3.833-.491-.184-.894-.971-.894-1.75S38.523 181 37.941 181s-.779-.453-.437-1.007c.343-.554-.081-1.277-.941-1.607-.859-.33-1.563-1.033-1.563-1.563 0-.529-1.381-2.97-3.07-5.424-5.737-8.339-7.704-14.184-9.449-28.074-1.32-10.516-1.427-14.27-.527-18.605 1.722-8.294 5.827-11.513 11.091-8.696 2.538 1.358 4.711 9.227 5.793 20.976.738 8.021 1.38 10.356 4.125 15 1.788 3.025 3.653 5.65 4.144 5.833.491.184.893.971.893 1.75 0 .78.45 1.417 1 1.417s1 .675 1 1.5.45 1.5 1 1.5.901.338.779.75c-.762 2.593 14.092 12.712 15.944 10.86.306-.306-2.912-4.025-7.151-8.264C51.793 158.568 50 155.671 50 150.272 50 144.7 52.26 142 56.922 142c4.448 0 6.158 1.181 18.347 12.671 4.822 4.547 10.897 9.468 13.5 10.936C107.42 176.131 115 181.6 115 184.533c0 .715.466 1.456 1.035 1.645 1.585.529 3.844 7.979 5.658 18.663 1.465 8.629 1.493 11.152.264 23.659-.757 7.7-1.394 16.7-1.417 20l-.04 6 8.25.29 8.25.291v-3.832c0-2.108-.721-9.213-1.603-15.791-1.862-13.896-1.386-29.999 1.138-38.458 3.567-11.953 10.326-19.236 26.006-28.02 6.839-3.831 12.817-8.303 19.87-14.865 5.549-5.161 11.556-10.084 13.348-10.939 6.489-3.096 12.162 1.996 10.762 9.659-.494 2.703-2.184 5.108-6.44 9.165-6.412 6.112-11.666 12.748-10.787 13.627 1.102 1.102 7.451-1.717 11.311-5.022 4.996-4.28 14.775-19.779 16.817-26.655.868-2.922 1.581-8.044 1.584-11.382.01-11.375 3.948-18.549 9.426-17.174 6.127 1.537 7.891 12.15 5.206 31.322-1.81 12.93-2.794 15.135-14.843 33.264-9.17 13.795-12.063 16.439-26.829 24.52-13.591 7.437-17.099 10.289-20.216 16.436-2.496 4.923-2.75 6.42-2.75 16.243 0 9.824.169 10.821 1.832 10.821 2.63 0 21.364-9.624 30.173-15.5 9.538-6.363 25.086-21.877 31.292-31.226 11.952-18.002 18.331-33.906 21.227-52.915.91-5.973 2.064-11.893 2.565-13.156C257.322 132.095 257.252 121 256 121c-.55 0-1-1.327-1-2.949 0-9.466-6.98-35.158-12.512-46.051-4.689-9.236-14.662-23.204-22.196-31.089-24.173-25.302-54.856-38.769-90.327-39.647-7.995-.198-14.829-.067-15.187.292m6.94 26.575c-8.339 1.876-15.865 8.397-20.437 17.705C98.803 50.884 98.5 52.588 98.5 61.5c0 9.013.287 10.584 2.903 15.913 1.597 3.252 4.562 7.503 6.589 9.447l3.685 3.533-5.838 2.761c-3.212 1.519-5.839 3.23-5.839 3.804 0 .573-.65 1.042-1.445 1.042s-3.533 2.563-6.084 5.695C83.649 114.524 79 126.95 79 139.698c0 6.604.157 7.062 3.555 10.356 3.404 3.301 9.398 7.304 23.381 15.619 8.542 5.079 16.132 12.633 19.127 19.036 1.341 2.865 2.734 5.227 3.098 5.25.363.023 1.637-1.975 2.83-4.44 4.371-9.03 16.778-19.858 30.926-26.991 2.98-1.502 7.817-5.001 10.75-7.775 4.952-4.683 5.332-5.372 5.316-9.648-.028-7.443-2.7-18.083-6.46-25.725-4.162-8.457-14.396-18.741-22.473-22.579l-5.201-2.472 2.585-1.694c4.028-2.639 9.331-11.49 11.143-18.599 5.084-19.941-8.089-40.515-27.077-42.289-2.75-.257-6.702-.084-8.782.384M.328 128.5c.005 3.85.185 5.302.402 3.228.216-2.075.213-5.225-.008-7-.221-1.776-.398-.078-.394 3.772" fill="#1976D2" fill-rule="evenodd"/><path fill-opacity=".192" d="M128 13.872v12.872l3.75.623c5.049.838 18.818 7.732 17.691 8.858-.3.301.505 1.386 1.791 2.411 1.285 1.025 3.444 4.339 4.799 7.364 2.109 4.712 2.462 7.004 2.465 16 .004 10.08-.134 10.755-3.449 16.869-1.899 3.503-4.911 7.533-6.693 8.955l-3.24 2.585 5.749 2.759c7.569 3.633 14.816 10.721 19.952 19.515 4.849 8.303 7.149 16.943 7.17 26.93l.015 7.113-4.765 4.457c-2.62 2.451-7.008 5.724-9.75 7.274-11.289 6.379-26.299 17.05-26.429 18.791-.031.411-1.673 2.998-3.65 5.75-1.976 2.751-3.257 5.002-2.845 5.002.412 0-.002.83-.92 1.845-1.498 1.654-1.643 5.087-1.405 33.25l.264 31.405 3.893.319 3.892.319-.827-11.819c-.454-6.501-.841-18.344-.859-26.319-.037-16.627 2.155-26.636 7.215-32.936 4.257-5.3 13.09-12.112 20.831-16.064 3.77-1.925 7.005-3.838 7.188-4.25.184-.412.955-.75 1.715-.75.76 0 1.863-.9 2.452-2s1.675-2 2.414-2c.739 0 4.42-3.263 8.179-7.25 7.523-7.979 10.172-9.75 14.587-9.75 4.431 0 6.663 1.645 7.374 5.434 1.192 6.355-.349 9.538-8.681 17.938-4.33 4.365-7.873 8.317-7.873 8.782 0 1.808 3.8.703 7.867-2.288 3.651-2.685 13.361-15.5 18.06-23.835.785-1.392 1.754-7.031 2.154-12.531 1.06-14.566 3.914-20.5 9.86-20.5 2.421 0 6.249 4.043 6.875 7.261 1.125 5.79.243 22.702-1.682 32.239-.444 2.2-2.063 6.475-3.597 9.5-4.789 9.439-17.285 27.629-21.395 31.142-4.977 4.255-18.752 12.472-22.473 13.405-2.8.703-12.669 9.661-12.669 11.501 0 .523-.45.952-1 .952s-.947.338-.882.75c.066.412.031.975-.076 1.25-1.011 2.592-1.415 5.972-1.764 14.75-.298 7.526-.088 10.25.792 10.25.659 0 5.412-1.996 10.562-4.435 28.466-13.485 49.666-34.65 62.711-62.608 13.754-29.476 15.28-64.965 4.126-95.957-14.888-41.368-54.612-74.874-95.994-80.968-4.386-.646-9.357-1.593-11.046-2.104-1.689-.51-5.177-.928-7.75-.928H128v12.872" fill="#1976D2" fill-rule="evenodd"/></svg>